<svg width="15" height="16" viewBox="0 0 15 16" fill="none" xmlns="http://www.w3.org/2000/svg">
<path d="M2.90808 15.098H12.0919C13.6956 15.098 15 13.7948 15 12.1925V2.90549C15 1.30327 13.6956 0 12.0919 0H2.90808C1.30443 0 0 1.30327 0 2.90549V12.1925C0 13.7948 1.30443 15.098 2.90808 15.098ZM3.98859 4.85063C4.09839 4.74044 4.24745 4.67824 4.40308 4.67769C4.55871 4.67714 4.7082 4.73828 4.81877 4.8477L6.9133 6.92766V3.25818C6.9133 2.9348 7.17634 2.672 7.5 2.672C7.82366 2.672 8.0867 2.9348 8.0867 3.25818V6.95599L10.1773 4.83207C10.232 4.77661 10.2971 4.73259 10.369 4.70256C10.4408 4.67254 10.5179 4.65711 10.5958 4.65719C10.7445 4.65719 10.8931 4.71288 11.0075 4.82523C11.2383 5.05189 11.2412 5.42313 11.0143 5.65468L7.94492 8.77315C7.89073 8.82813 7.82622 8.87188 7.75507 8.90189C7.68392 8.9319 7.60754 8.94758 7.53031 8.94803C7.36995 8.94705 7.22425 8.88745 7.11376 8.77803L3.99153 5.68008C3.76173 5.45147 3.75978 5.08022 3.98859 4.85063ZM4.27412 10.7583H10.7269C11.0505 10.7583 11.3136 11.0211 11.3136 11.3445C11.3136 11.6679 11.0505 11.9307 10.7269 11.9307H4.27412C3.95046 11.9307 3.68742 11.6679 3.68742 11.3445C3.68742 11.0211 3.94948 10.7583 4.27412 10.7583Z" fill="#91979D"/>
</svg>
