<svg width="18" height="18" viewBox="0 0 18 18" fill="none" xmlns="http://www.w3.org/2000/svg">
<path d="M2.83265 14.9559H4.51568C4.80924 14.9559 5.04717 14.7001 5.04717 14.3847V6.32382C5.04717 6.0083 4.80921 5.75258 4.51568 5.75258H2.83265C2.53909 5.75258 2.30116 6.00834 2.30116 6.32382V14.3846C2.30113 14.7001 2.53909 14.9559 2.83265 14.9559ZM8.23946 14.9559H9.9225C10.2161 14.9559 10.454 14.582 10.454 14.1207V2.33521C10.454 1.87392 10.216 1.5 9.9225 1.5H8.23946C7.94594 1.5 7.70798 1.87392 7.70798 2.33521V14.1207C7.70798 14.582 7.9459 14.9559 8.23946 14.9559ZM13.6463 14.9559H15.3293C15.6229 14.9559 15.8608 14.6085 15.8608 14.1798V3.22817C15.8608 2.79953 15.6228 2.4521 15.3293 2.4521H13.6463C13.3527 2.4521 13.1148 2.79953 13.1148 3.22817V14.1798C13.1148 14.6084 13.3527 14.9559 13.6463 14.9559ZM0.5 16.1079C0.5 15.9975 0.589543 15.9079 0.7 15.9079H17.3667C17.4771 15.9079 17.5667 15.9975 17.5667 16.1079V17.3C17.5667 17.4105 17.4771 17.5 17.3667 17.5H0.700001C0.589544 17.5 0.5 17.4105 0.5 17.3V16.1079Z" fill="#666666"/>
</svg>
