<svg width="12" height="12" viewBox="0 0 12 12" fill="none" xmlns="http://www.w3.org/2000/svg">
<path fill-rule="evenodd" clip-rule="evenodd" d="M1.34902 0C0.603936 0 0 0.664405 0 1.48401V1.48401V10.516C0 11.3356 0.603936 12 1.34902 12V12H10.651C11.396 12 12 11.3356 12 10.516V10.516V1.48401C12 0.664405 11.396 0 10.651 0V0H1.34902Z" fill="#135DCD"/>
<mask id="mask0_98_2549" style="mask-type:alpha" maskUnits="userSpaceOnUse" x="0" y="0" width="12" height="12">
<path fill-rule="evenodd" clip-rule="evenodd" d="M1.34902 0C0.603936 0 0 0.664405 0 1.48401V1.48401V10.516C0 11.3356 0.603936 12 1.34902 12V12H10.651C11.396 12 12 11.3356 12 10.516V10.516V1.48401C12 0.664405 11.396 0 10.651 0V0H1.34902Z" fill="white"/>
</mask>
<g mask="url(#mask0_98_2549)">
<path fill-rule="evenodd" clip-rule="evenodd" d="M10.1455 9.32702L15.6669 8.33346L9.33357 16.0001L10.1455 9.32702ZM9.33333 8.89127L8.49954 15.9997L4 4.33301L9.33333 8.89127ZM9.96983 8.33285L4.66699 3.99951L13.3337 5.57092L9.96983 8.33285ZM14.1721 5.6665L16 7.4197L11 8.33317L14.1721 5.6665ZM14.2422 4.84357L2.3335 2.6665L8.60111 18.3332L17.3335 7.7634L14.2422 4.84357Z" fill="white"/>
</g>
</svg>
