<svg width="12" height="12" viewBox="0 0 12 12" fill="none" xmlns="http://www.w3.org/2000/svg">
<path d="M0 6C0 2.68629 2.68629 0 6 0V0C9.31371 0 12 2.68629 12 6V6C12 9.31371 9.31371 12 6 12V12C2.68629 12 0 9.31371 0 6V6Z" fill="#D71718"/>
<path d="M4.32262 5.67885L3.18143 5.06809L2.01003 5.61861L2.26289 4.39456L1.3501 3.49924L2.64752 3.35347L3.2548 2.24966L3.80384 3.38356L5.09194 3.59669L4.1338 4.44326L4.32262 5.67885ZM6.00718 3.00371L5.73721 2.5785L5.23387 2.55989L5.55479 2.17173L5.41706 1.68722L5.88537 1.87251L6.30354 1.5918L6.27206 2.09451L6.66829 2.40543L6.18048 2.53083L6.00718 3.00371ZM6.71641 4.80589L6.44638 4.38074L5.94304 4.36205L6.26402 3.97391L6.12629 3.48946L6.5946 3.67476L7.01275 3.39398L6.98129 3.89669L7.37752 4.20762L6.88968 4.33302L6.71641 4.80589ZM6.72439 6.38483L6.45442 5.95963L5.95102 5.94099L6.272 5.55282L6.13426 5.06832L6.60261 5.25364L7.0207 4.97287L6.98924 5.47555L7.3855 5.7865L6.89769 5.9119L6.72439 6.38483ZM5.28997 7.65821L5.01994 7.233L4.51666 7.21431L4.83758 6.82614L4.69979 6.34167L5.16816 6.52696L5.58631 6.24621L5.55482 6.74898L5.95105 7.05987L5.46327 7.18527L5.28997 7.65821Z" fill="#F5E829"/>
</svg>
